PathFileType	4	(X/Y/Z)	c:/Users/goper/Files/vsCode/490R/osim_files/A01/A01_PWS_03.trc
DataRate	CameraRate	NumFrames	NumMarkers	Units                	OrigDataRate	OrigDataStartFrame	OrigNumFrames
120.00	120.00	10	36	mm	120.0	1532	1750
                Frame#	Time	Mobility_markerset:LPSIS			Mobility_markerset:LASIS			Mobility_markerset:LTH1			Mobility_markerset:LTH2			Mobility_markerset:LTH3			Mobility_markerset:LTH4			Mobility_markerset:LLFE			Mobility_markerset:LMFE			Mobility_markerset:LSH1			Mobility_markerset:LSH2			Mobility_markerset:LSH3			Mobility_markerset:LSH4			Mobility_markerset:LLMAL			Mobility_markerset:LMMAL			Mobility_markerset:LCAL			Mobility_markerset:LMTP5			Mobility_markerset:LTOE			Mobility_markerset:LMTP1			Mobility_markerset:RPSIS			Mobility_markerset:RASIS			Mobility_markerset:RTH1			Mobility_markerset:RTH2			Mobility_markerset:RTH3			Mobility_markerset:RTH4			Mobility_markerset:RLFE			Mobility_markerset:RMFE			Mobility_markerset:RSH1			Mobility_markerset:RSH2			Mobility_markerset:RSH3			Mobility_markerset:RSH4			Mobility_markerset:RLMAL			Mobility_markerset:RMMAL			Mobility_markerset:RCAL			Mobility_markerset:RMTP1			Mobility_markerset:RTOE			Mobility_markerset:RMTP5		
		X1	Y1	Z1	X2	Y2	Z2	X3	Y3	Z3	X4	Y4	Z4	X5	Y5	Z5	X6	Y6	Z6	X7	Y7	Z7	X8	Y8	Z8	X9	Y9	Z9	X10	Y10	Z10	X11	Y11	Z11	X12	Y12	Z12	X13	Y13	Z13	X14	Y14	Z14	X15	Y15	Z15	X16	Y16	Z16	X17	Y17	Z17	X18	Y18	Z18	X19	Y19	Z19	X20	Y20	Z20	X21	Y21	Z21	X22	Y22	Z22	X23	Y23	Z23	X24	Y24	Z24	X25	Y25	Z25	X26	Y26	Z26	X27	Y27	Z27	X28	Y28	Z28	X29	Y29	Z29	X30	Y30	Z30	X31	Y31	Z31	X32	Y32	Z32	X33	Y33	Z33	X34	Y34	Z34	X35	Y35	Z35	X36	Y36	Z36

1532	12.75833	-1263.25842	1042.44946	1551.59363	-1024.71191	1029.06140	1472.41528	-998.60602	717.81866	1400.13367	-970.69299	679.50958	1406.03894	-947.11163	749.06598	1404.12085	-927.45697	707.58252	1413.11243	-901.11523	569.87183	1441.24084	-875.29156	577.11389	1575.14624	-918.45270	402.15143	1452.41052	-914.08014	354.94064	1449.53296	-856.45563	404.36414	1448.82593	-859.67236	358.31165	1447.96033	-864.70825	106.40169	1462.31421	-866.24353	103.27454	1548.20935	-936.68433	66.61935	1511.87805	-724.05737	74.01085	1430.33667	-694.54700	99.80379	1495.79736	-705.74573	83.76268	1529.40259	-1263.32214	1044.19116	1652.78613	-1034.14795	993.90692	1732.62988	-1197.23352	674.90594	1782.70569	-1190.88672	632.19037	1773.79126	-1134.20007	676.67761	1780.54175	-1138.14661	634.43982	1773.87720	-1163.93103	491.38190	1726.37488	0.00000	0.00000	0.00000	-1293.16565	313.65717	1724.15662	-1298.57935	268.81638	1720.15112	-1232.55676	298.59122	1727.20764	-1245.83386	256.24295	1723.43567	-1310.63428	92.16351	1680.34192	-1284.13428	109.30122	1597.54224	-1366.20642	67.80475	1630.59692	-1161.88879	40.23317	1597.13623	-1126.97729	52.51747	1643.31018	-1183.05981	32.66793	1711.63342
1533	12.76667	-1253.16919	1040.59070	1550.08557	-1014.27728	1027.17383	1472.21619	-988.95386	715.08527	1400.49524	-961.42017	676.58704	1406.85864	-937.33618	746.07019	1404.83362	-918.05634	704.43134	1414.28088	-889.64008	568.19397	1442.21594	-866.53247	575.77301	1576.68335	-900.01740	399.96631	1452.11304	-892.68353	352.78741	1448.40063	-837.94977	404.86145	1449.65393	-838.52655	358.77554	1448.22888	-834.03326	106.75315	1461.09375	-837.02124	103.01997	1546.97180	-905.36102	63.71733	1508.41064	-691.21002	80.41088	1431.87720	-664.21478	107.13055	1497.98755	-675.35010	90.49619	1531.25525	-1253.69299	1042.85852	1651.21118	-1025.14893	992.16492	1732.49731	-1190.79504	674.52008	1782.31567	-1185.00439	631.72382	1773.39697	-1127.78528	675.63544	1779.88245	-1132.22729	633.35535	1773.35913	-1159.84045	490.46490	1725.74475	-1153.30640	507.26691	1605.97302	-1290.87256	313.90237	1723.69470	-1296.38953	268.96649	1719.76501	-1230.40332	298.35498	1726.70581	-1244.11670	256.34949	1722.95984	-1310.48816	92.50566	1680.02209	-1283.69849	109.39314	1597.09717	-1365.96313	68.16973	1630.23792	-1161.70618	40.04726	1597.35437	-1126.82288	52.24529	1643.26013	-1183.10107	32.66330	1711.58386
1534	12.77500	-1243.08911	1038.78088	1548.56775	-1003.76434	1025.32922	1472.00525	-979.55243	712.13684	1400.85962	-952.27191	673.53729	1407.61548	-927.62134	742.86255	1405.52527	-908.76880	701.07977	1415.33521	-879.31769	566.28040	1443.02161	-857.23242	574.40387	1578.20972	-881.76294	398.01953	1451.72742	-872.61731	351.23401	1447.95459	-820.08679	405.37720	1450.54199	-818.82916	359.25024	1448.75134	-804.65466	107.69506	1460.03906	-808.89349	103.26141	1545.87012	-874.81757	61.41239	1506.00208	-660.07959	87.25546	1433.43213	-635.39722	114.57115	1500.22620	-645.94232	97.83035	1533.41113	-1243.88489	1041.50269	1649.68506	-1015.84534	990.43774	1732.47498	-1184.53186	674.04370	1782.04517	-1179.78113	631.07391	1773.19360	-1121.46729	674.43323	1779.39392	-1126.21729	632.32404	1772.86621	-1155.35242	489.38907	1724.99194	-1149.22461	506.64850	1604.78235	-1288.38953	314.18002	1723.33813	-1294.07837	269.15598	1719.47412	-1228.31165	298.23239	1726.20776	-1242.12268	256.17224	1722.57983	-1310.20337	93.04639	1679.70618	-1283.31812	109.50440	1596.74524	-1365.67480	68.48894	1630.04431	-1161.96411	40.13562	1596.97168	-1126.65759	51.94811	1643.21082	-1183.08777	32.68073	1711.57361
1535	12.78333	-1233.02808	1036.95764	1547.05017	-993.27258	1023.35016	1471.78711	-970.13977	709.03546	1401.02734	-943.08148	670.31934	1408.21057	-918.31299	739.51447	1406.05762	-899.55859	697.78583	1416.26294	-867.17755	564.72754	1444.36682	-848.71265	572.37128	1579.70740	-864.34753	396.30911	1451.56177	-853.32379	349.87213	1447.59326	-802.93250	405.89062	1451.45422	-799.96222	359.85544	1449.40112	-776.43787	108.61827	1459.35413	-781.97687	103.91454	1545.05066	-845.55072	59.60963	1503.45679	-630.59753	94.25198	1434.86804	-608.39575	121.89151	1502.30530	-619.42871	104.21714	1535.05408	-1234.09863	1040.05566	1648.10181	-1006.72839	988.70953	1732.34900	-1177.91772	673.23047	1781.79321	-1173.39062	630.38165	1772.86621	-1114.80042	673.16357	1778.92310	-1120.09192	631.02631	1772.34167	-1150.61743	488.35178	1724.40320	-1145.05054	505.92868	1603.86145	-1285.68872	314.55109	1723.09155	-1291.50586	269.37558	1719.18591	-1225.04321	297.59497	1725.96838	-1239.88354	256.12183	1722.20557	-1309.68335	93.61090	1679.46375	-1282.94800	109.67332	1596.48511	-1365.41321	68.98141	1629.84729	-1161.93494	40.01048	1596.97607	-1126.53406	51.68660	1643.22253	-1182.92444	32.78323	1711.50073
1536	12.79167	-1222.65063	1035.08691	1545.53223	-982.68463	1021.26672	1471.56396	-960.77203	705.80823	1401.18054	-934.06012	666.93158	1408.81458	-908.86957	736.09216	1406.74902	-890.49310	694.30127	1417.24829	-856.56641	562.81445	1445.47070	-840.26562	570.10156	1581.23499	-847.77490	394.49759	1451.50085	-835.10626	348.64844	1447.34290	-786.42389	406.40704	1452.30176	-782.16064	360.35074	1450.00781	-749.77649	109.79346	1458.70898	-756.47797	103.99866	1543.25684	-817.01331	57.83553	1501.26147	-603.38312	101.08562	1436.00061	-582.93823	129.12852	1504.16016	-593.46051	111.21355	1536.83484	-1224.18994	1038.50720	1646.61511	-997.27557	987.08484	1732.10571	-1171.19629	672.34503	1781.52576	-1166.64905	629.43207	1772.30103	-1108.02710	671.76416	1778.47034	-1113.64417	629.67206	1771.75684	-1145.60889	487.30563	1723.74219	-1140.46814	505.26041	1602.78857	-1282.77161	314.85336	1722.81543	-1285.59155	270.09900	1720.90198	-1222.67981	297.64279	1725.42334	-1237.13147	256.27524	1721.61475	-1309.23157	94.05121	1679.33533	-1282.40222	109.92036	1596.19763	-1365.09912	69.54058	1629.70361	-1161.72607	39.89413	1596.94934	-1126.35840	51.44092	1643.21765	-1182.81116	32.85624	1711.46143
1537	12.80000	-1212.33752	1033.34167	1544.02502	-972.06671	1019.22107	1471.44482	-951.18115	702.60370	1401.28735	-924.78296	663.67395	1409.29346	-899.35474	732.81403	1407.48755	-881.23102	690.84857	1418.27576	-846.46899	560.68390	1446.74048	-831.88715	567.46088	1582.82410	-832.00623	392.94250	1451.52966	-817.74493	347.53165	1447.22791	-771.27972	406.65723	1453.31262	-765.44946	360.72101	1450.64539	-724.58197	111.64956	1457.90442	-732.51190	104.68764	1542.11108	-790.95160	56.88233	1498.91443	-578.02380	107.75336	1437.17603	-559.43909	135.94067	1505.71631	-570.19727	117.39815	1537.97693	-1214.29761	1037.00684	1645.04138	-987.78778	985.42957	1731.87378	-1164.09900	671.39880	1781.24109	-1160.00977	628.49011	1771.83618	-1101.03027	670.28033	1777.93323	-1107.11316	628.28320	1771.03027	-1140.50000	486.45163	1723.23865	-1135.42310	504.37781	1602.06616	-1279.53699	315.10794	1722.54590	0.00000	0.00000	0.00000	-1219.76074	297.39127	1725.04053	-1234.54126	256.18195	1721.31567	-1308.65967	94.56322	1679.21777	-1281.72559	110.20898	1595.85242	-1364.84656	70.21645	1629.46790	-1161.66211	39.74926	1596.96875	-1126.09644	51.15905	1643.22534	-1182.60815	32.98860	1711.39258
1538	12.80833	-1201.97156	1031.57227	1542.51111	-961.34247	1017.06866	1471.31299	-941.55493	699.49701	1401.42932	-915.23065	660.62177	1409.74231	-889.71234	729.72266	1408.31299	-871.75043	687.67963	1419.30286	-836.68970	558.53546	1448.02319	-823.65704	564.67554	1584.41626	-817.15503	391.23816	1451.73462	-801.70245	346.44913	1447.23706	-756.97577	406.78403	1454.37122	-749.81506	361.07614	1451.42273	-701.71014	113.13653	1457.07080	-710.49976	105.29119	1541.04944	-767.09125	56.25312	1496.74512	-554.85394	113.89222	1438.00183	-537.85748	142.07849	1506.93323	-548.58191	123.15299	1539.12573	-1204.24866	1035.40747	1643.61609	-978.32678	983.67682	1731.53381	-1156.94873	670.45630	1780.83960	-1153.19214	627.51514	1771.21118	-1093.79370	668.81995	1777.34460	-1100.17871	626.91638	1770.34692	-1135.18176	485.35782	1722.74426	-1129.97644	503.44800	1601.42957	-1276.21204	315.51535	1722.21826	0.00000	0.00000	0.00000	-1216.64404	297.11960	1724.61755	-1231.67554	256.19742	1720.80762	-1307.72168	95.37607	1679.27734	-1281.10754	110.53982	1595.55615	-1364.69470	70.99924	1629.23938	-1161.43018	39.64698	1597.05701	-1125.94287	50.84166	1643.22778	-1182.40771	33.11211	1711.31921
1539	12.81667	-1191.27051	1029.71558	1541.04993	-950.55438	1015.01239	1471.19263	-931.70679	696.61920	1401.68701	-905.52307	657.64941	1410.35962	-879.97888	726.68634	1409.24890	-862.08270	684.69128	1420.49170	-827.06799	556.47894	1449.36389	-815.21454	561.88019	1585.97302	-803.45367	389.72134	1452.01147	-786.72321	345.30075	1447.36890	-743.72095	406.57599	1455.33313	-735.41534	361.12347	1452.10767	-681.21472	114.43318	1456.23071	-690.57373	105.68622	1540.00220	-745.20874	55.47728	1494.85803	-534.16144	119.12105	1438.68958	-518.43085	147.36040	1507.91223	-528.62738	128.05151	1539.87866	-1194.14185	1033.70056	1642.09595	-968.59882	982.03113	1731.07434	-1149.40137	669.57812	1780.32910	-1146.36914	626.66406	1770.76294	-1086.34131	667.30371	1776.82178	-1093.17639	625.47156	1769.65344	-1129.74316	484.37762	1722.20044	-1123.82996	502.44333	1600.76367	-1272.74426	315.96741	1721.84387	0.00000	0.00000	0.00000	-1213.25964	296.91428	1724.15344	-1228.70642	256.25177	1720.32031	-1307.21545	96.25526	1679.00305	-1280.39294	111.01785	1595.22534	-1364.55249	71.79056	1629.03308	-1161.34314	39.51307	1597.06494	-1125.72351	50.54273	1643.19385	-1182.16382	33.31760	1711.19995
1540	12.82500	-1180.64478	1028.02368	1539.63586	-939.87244	1012.89453	1470.96912	-921.55255	694.00092	1402.01367	-895.49286	655.02216	1411.03137	-869.86438	724.01068	1410.36243	-852.27856	681.91919	1421.87695	-817.33307	554.52972	1450.70593	-806.68372	559.10187	1587.48865	-790.53455	388.13245	1452.30090	-773.06769	344.16367	1447.46472	-731.29541	406.10818	1456.33252	-722.12750	360.79184	1452.68628	-663.37115	115.29435	1455.56006	-673.10199	105.77269	1539.16467	-726.48846	54.68172	1493.29724	-516.16443	123.12360	1439.18164	-501.51358	151.20381	1508.64807	-511.03928	130.67619	1540.51819	-1183.91772	1031.93921	1640.69141	-958.91016	980.19843	1730.71484	-1141.78674	668.63495	1779.67468	-1138.85754	625.64697	1769.94678	-1078.65063	665.82129	1776.22888	-1085.95789	624.07880	1769.04443	-1123.89819	483.21582	1721.65906	-1117.84045	501.23499	1600.17883	-1269.01978	316.56366	1721.36865	-1271.89856	270.35281	1722.37891	-1210.10632	296.77298	1723.47437	-1225.75769	256.26910	1719.89722	-1306.47803	97.14129	1678.84631	-1279.58203	111.58515	1594.91919	-1364.08813	72.73543	1628.82068	-1161.26074	39.39537	1597.07532	-1125.59021	50.21675	1643.18970	-1181.95862	33.53773	1711.06250
1541	12.83333	-1169.92090	1026.27673	1538.15784	-928.97540	1010.98199	1470.76038	-911.00067	691.50043	1402.43250	-885.27460	652.54211	1412.03613	-859.40503	721.56610	1411.49609	-842.13684	679.44702	1423.36292	-808.08313	552.61835	1451.75281	-797.44257	556.49860	1588.87793	-778.82196	386.67432	1452.67810	-760.64465	343.01212	1447.68323	-719.60077	405.36649	1457.23523	-709.96991	360.20786	1453.44995	-648.24713	115.34392	1455.04895	-658.48541	105.19233	1538.56714	-710.82904	53.67660	1492.06250	-501.15918	125.25410	1439.89758	-486.80899	153.59787	1509.56250	-496.68213	132.23477	1541.29492	-1173.67188	1030.17261	1639.20581	-949.13428	978.30518	1730.31860	-1134.00110	667.71527	1778.99854	-1131.65710	624.75195	1769.45996	-1070.97815	664.29535	1775.64771	-1078.55115	622.56287	1768.42810	-1117.63513	481.97476	1720.97253	-1111.10791	499.95206	1599.64050	-1265.07288	317.14743	1720.75940	-1268.74890	271.07578	1721.96692	-1206.42761	296.75281	1722.56274	-1222.53162	256.43896	1719.41382	-1305.75549	98.19864	1678.68250	-1278.78577	112.20296	1594.65247	-1363.64600	74.18179	1628.71289	-1161.35229	39.28956	1596.99329	-1125.37439	49.93162	1643.13684	-1181.68628	33.76237	1710.87671
